<?xml version="1.0" encoding="iso-8859-1"?>
<!-- Generator: Adobe Illustrator 19.0.0, SVG Export Plug-In . SVG Version: 6.00 Build 0)  -->
<svg version="1.1" id="Layer_1" xmlns="http://www.w3.org/2000/svg" xmlns:xlink="http://www.w3.org/1999/xlink" x="0px" y="0px"
	 viewBox="0 0 512 512" style="enable-background:new 0 0 512 512;" xml:space="preserve">
<path style="fill:#97BAA8;" d="M444.786,174.253v324.84H67.216v-324.84H444.786z"/>
<path style="fill:#78A097;" d="M256,499.092H67.215v-324.84H256V499.092z"/>
<path style="fill:#FF4328;" d="M321.149,71.869h132.215l48.695,115.837c0.882,2.097,1.336,4.351,1.336,6.626v1.043l0,0
	c-2.191,14.851-15.434,26.253-31.036,26.253s-28.511-11.402-30.701-26.253h-0.492c-2.191,14.851-15.105,26.253-30.704,26.253
	c-15.599,0-28.511-11.402-30.704-26.253h-0.267c-2.196,14.851-15.107,26.253-30.706,26.253c-15.597,0-28.511-11.402-30.704-26.253
	h-0.488c-2.193,14.851-15.105,26.253-30.702,26.253c-15.602,0-28.511-11.402-30.706-26.253h-0.376
	c-2.191,14.851-15.1,26.253-30.702,26.253s-28.511-11.402-30.701-26.253h-0.488c-2.196,14.851-15.105,26.253-30.704,26.253
	s-28.511-11.402-30.704-26.253h-0.269c-2.195,14.851-15.105,26.253-30.706,26.253c-15.597,0-28.511-11.402-30.701-26.253h-0.489
	c-2.193,14.851-15.102,26.253-30.704,26.253c-15.599,0-28.511-11.402-30.701-26.253H8.605l0,0c0-2.964,0.588-5.899,1.73-8.634
	L58.296,71.869h132.559"/>
<path style="fill:#981700;" d="M256,195.374h-0.19c-2.191,14.851-15.1,26.253-30.702,26.253s-28.511-11.402-30.701-26.253h-0.488
	c-2.196,14.851-15.105,26.253-30.704,26.253s-28.511-11.402-30.704-26.253h-0.269c-2.195,14.851-15.105,26.253-30.706,26.253
	c-15.597,0-28.511-11.402-30.701-26.253h-0.489c-2.193,14.851-15.102,26.253-30.704,26.253c-15.599,0-28.845-11.402-31.036-26.253
	l0,0l0,0c0-2.964,0.588-5.899,1.73-8.634l47.96-114.871h132.559H256V195.374z"/>
<path style="fill:#663310;" d="M255.998,12.906L255.998,12.906c34.277,0,62.319,27.777,62.319,61.73V99.33
	c0,33.952-28.041,61.73-62.319,61.73l0,0c-34.273,0-62.311-27.777-62.311-61.73V74.637
	C193.687,40.684,221.725,12.906,255.998,12.906L255.998,12.906z"/>
<path style="fill:#874D20;" d="M255.234,161.041c-33.922-0.411-61.548-28.012-61.548-61.711V74.637
	c0-33.781,27.759-61.439,61.795-61.718c0.003,0.141,0.059,0.28,0.171,0.383c19.409,17.943,16.114,53.351,0.202,73.022
	C239.48,106.563,235.295,142.057,255.234,161.041z"/>
<path d="M509.992,184.372L461.297,68.534c-1.342-3.194-4.468-5.27-7.933-5.27H325.981c-5.5-33.392-34.781-58.962-69.983-58.962
	c-0.104,0-0.207,0.008-0.31,0.008c-0.004,0-0.008,0-0.012,0c-35.055,0.156-64.172,25.665-69.654,58.954H58.296
	c-3.472,0-6.603,2.087-7.94,5.29L2.394,183.425C0.806,187.231,0,191.251,0,195.374c0,1.375,0.323,2.674,0.895,3.827
	c3.887,17.864,20.099,31.032,38.745,31.032c6.81,0,13.29-1.764,18.97-4.864v265.118h-41.4c-4.753,0-8.605,3.853-8.605,8.605
	s3.852,8.605,8.605,8.605h50.005h0.001H256h188.786h50.004c4.752,0,8.605-3.853,8.605-8.605s-3.853-8.605-8.605-8.605h-41.399
	V225.369c5.678,3.1,12.159,4.863,18.969,4.863c19.721,0,36.723-14.447,39.549-33.603c0.061-0.415,0.091-0.835,0.091-1.255v-1.043
	C512,190.893,511.325,187.543,509.992,184.372z M309.712,74.637V99.33c0,28.113-22.197,51.181-50.164,52.996
	c-13.542-15.667-9.795-43.924,3.416-60.251c9.441-11.671,14.979-27.508,15.196-43.453c0.118-8.708-1.318-16.835-4.158-24.031
	C294.788,31.929,309.712,51.588,309.712,74.637z M202.292,74.637c0-28.119,22.204-51.192,50.177-52.997
	c12.202,14.399,11.169,42.237-2.886,59.611c-14.367,17.757-20.266,46.032-11.565,68.133c-20.796-7.331-35.726-26.996-35.726-50.052
	V74.637z M75.822,490.487V220.73c6.988,5.931,16.016,9.501,25.713,9.501c12.274,0,23.495-5.707,30.839-14.705
	c7.344,8.998,18.564,14.705,30.839,14.705c12.334,0,23.604-5.763,30.946-14.838c7.341,9.075,18.612,14.838,30.948,14.838
	c8.178,0,15.88-2.544,22.287-6.896v267.152H75.822z M264.605,490.487V223.336c6.408,4.351,14.11,6.897,22.287,6.897
	c12.334,0,23.604-5.764,30.946-14.838c7.342,9.074,18.613,14.838,30.948,14.838c12.273,0,23.493-5.707,30.838-14.703
	c7.344,8.995,18.564,14.703,30.838,14.703c9.698,0,18.728-3.573,25.718-9.504v269.758H264.605z M494.79,194.69
	c-1.84,10.492-11.379,18.333-22.43,18.333c-11.06,0-20.598-8.127-22.188-18.903c-0.623-4.223-4.245-7.35-8.514-7.35h-0.492
	c-4.267,0-7.891,3.127-8.514,7.35c-1.589,10.777-11.13,18.903-22.19,18.903c-11.06,0-20.599-8.127-22.191-18.905
	c-0.624-4.221-4.246-7.348-8.513-7.348h-0.267c-4.266,0-7.889,3.126-8.513,7.347c-1.593,10.778-11.135,18.906-22.193,18.906
	c-11.06,0-20.599-8.127-22.191-18.905c-0.624-4.221-4.246-7.348-8.513-7.348h-0.489c-4.267,0-7.89,3.127-8.513,7.348
	c-1.592,10.778-11.131,18.905-22.188,18.905c-11.059,0-20.6-8.129-22.193-18.906c-0.624-4.221-4.247-7.347-8.513-7.347h-0.376
	c-4.267,0-7.891,3.127-8.514,7.35c-1.589,10.777-11.128,18.903-22.188,18.903c-11.06,0-20.598-8.127-22.188-18.903
	c-0.623-4.223-4.246-7.35-8.514-7.35h-0.489c-4.266,0-7.889,3.126-8.513,7.347c-1.593,10.778-11.134,18.906-22.191,18.906
	c-11.06,0-20.599-8.127-22.191-18.905c-0.624-4.221-4.246-7.348-8.513-7.348h-0.27c-4.266,0-7.889,3.126-8.513,7.347
	c-1.593,10.778-11.135,18.906-22.193,18.906c-11.06,0-20.598-8.127-22.188-18.903c-0.623-4.223-4.246-7.35-8.514-7.35h-0.489
	c-4.267,0-7.889,3.127-8.513,7.348c-1.592,10.778-11.132,18.905-22.191,18.905S19.04,204.896,17.45,194.12
	c-0.031-0.211-0.07-0.418-0.115-0.623c0.161-1.179,0.475-2.331,0.938-3.441L64.028,80.474h121.054V99.33
	c0,38.783,31.813,70.335,70.916,70.335c39.108,0,70.924-31.553,70.924-70.335V80.474h120.727l46.478,110.567
	c0.441,1.048,0.664,2.154,0.664,3.29V194.69z M213.496,390.181v25.301c0,4.752-3.853,8.605-8.605,8.605
	c-4.753,0-8.605-3.853-8.605-8.605v-25.301c0-4.752,3.852-8.605,8.605-8.605C209.644,381.576,213.496,385.428,213.496,390.181z
	 M316.114,390.181v25.301c0,4.752-3.853,8.605-8.605,8.605c-4.752,0-8.605-3.853-8.605-8.605v-25.301
	c0-4.752,3.853-8.605,8.605-8.605C312.261,381.576,316.114,385.428,316.114,390.181z M108.683,300.708
	c-1.718,0-3.451-0.512-4.96-1.579c-3.881-2.743-4.803-8.112-2.06-11.993l22.819-32.286c2.743-3.882,8.112-4.804,11.993-2.061
	s4.803,8.113,2.06,11.993l-22.819,32.287C114.04,299.44,111.383,300.708,108.683,300.708z M398.304,355.865
	c2.743,3.881,1.821,9.25-2.06,11.993c-1.509,1.066-3.243,1.579-4.96,1.579c-2.7,0-5.358-1.267-7.035-3.639l-71.4-101.016
	c-2.743-3.88-1.821-9.25,2.06-11.993c3.881-2.743,9.251-1.82,11.993,2.06L398.304,355.865z M410.736,287.134
	c2.744,3.881,1.822,9.25-2.059,11.994c-1.509,1.066-3.243,1.579-4.96,1.579c-2.7,0-5.357-1.266-7.034-3.638l-22.825-32.286
	c-2.744-3.88-1.822-9.25,2.059-11.993c3.881-2.744,9.25-1.821,11.993,2.059L410.736,287.134z M199.55,264.783l-71.402,101.017
	c-1.677,2.372-4.335,3.639-7.035,3.639c-1.717,0-3.451-0.513-4.96-1.579c-3.881-2.744-4.803-8.113-2.06-11.993l71.403-101.017
	c2.743-3.881,8.111-4.804,11.993-2.06C201.371,255.532,202.294,260.902,199.55,264.783z"/>
<g>
</g>
<g>
</g>
<g>
</g>
<g>
</g>
<g>
</g>
<g>
</g>
<g>
</g>
<g>
</g>
<g>
</g>
<g>
</g>
<g>
</g>
<g>
</g>
<g>
</g>
<g>
</g>
<g>
</g>
</svg>
