<?xml version="1.0" encoding="iso-8859-1"?>
<!-- Generator: Adobe Illustrator 19.0.0, SVG Export Plug-In . SVG Version: 6.00 Build 0)  -->
<svg version="1.1" id="Layer_1" xmlns="http://www.w3.org/2000/svg" xmlns:xlink="http://www.w3.org/1999/xlink" x="0px" y="0px"
	 viewBox="0 0 461.504 461.504" style="enable-background:new 0 0 461.504 461.504;" xml:space="preserve">
<g>
	<g>
		<g>
			<path d="M347.162,261.534c-2.53-2.53-5.484-2.907-7.02-2.907c-1.536,0-4.49,0.378-7.02,2.907
				c-4.017,4.017-8.453,7.461-13.207,10.299v106.294c0,7.939-6.435,14.374-14.374,14.374h-149.58
				c-7.938,0-14.374-6.435-14.374-14.374V271.833c-4.754-2.838-9.19-6.282-13.206-10.299c-2.53-2.53-5.484-2.907-7.02-2.907
				s-4.49,0.378-7.02,2.908c-3.353,3.353-7.002,6.297-10.88,8.833c-8.633,5.646-18.423,9.202-28.748,10.423v147.637
				c0,17.366,14.128,31.493,31.493,31.493h249.089c17.366,0,31.494-14.128,31.494-31.493V280.79
				c-10.324-1.221-20.115-4.777-28.748-10.423C354.165,267.832,350.514,264.887,347.162,261.534z"/>
			<path d="M285.447,281.282c-18.009,0-34.941-7.013-47.675-19.748c-2.53-2.53-5.484-2.907-7.02-2.907s-4.49,0.378-7.02,2.907
				c-12.734,12.734-29.666,19.748-47.675,19.748c-1.922,0-3.828-0.097-5.721-0.255v22.511h120.832v-22.512
				C289.275,281.185,287.369,281.282,285.447,281.282z"/>
			<path d="M457.637,175.186l-54.356-95.085c-5.222-9.135-14.938-14.771-25.459-14.771h-17.737V24.416
				c0-12.61-10.223-22.833-22.833-22.833h-213c-12.61,0-22.833,10.223-22.833,22.833v40.915H83.682
				c-10.522,0-20.237,5.637-25.459,14.771L3.867,175.186c-6.564,11.483-4.63,25.938,4.723,35.29l30.73,30.73
				c7.552,7.552,17.45,11.328,27.347,11.328c9.898,0,19.796-3.776,27.348-11.328s17.45-11.328,27.347-11.328
				c9.898,0,19.796,3.776,27.347,11.328c7.551,7.551,17.451,11.328,27.347,11.328c9.899,0,19.795-3.775,27.347-11.328
				c7.552-7.552,17.45-11.328,27.348-11.328c9.898,0,19.795,3.776,27.347,11.328c7.552,7.552,17.45,11.328,27.348,11.328
				s19.796-3.776,27.348-11.328c7.551-7.551,17.451-11.328,27.347-11.328c9.899,0,19.795,3.775,27.348,11.328
				c7.552,7.552,17.45,11.328,27.347,11.328c9.898,0,19.796-3.776,27.348-11.328l30.73-30.73
				C462.267,201.125,464.201,186.669,457.637,175.186z M69.002,189.344H30.329L84.073,95.33h17.345v0.419
				c0,5.673,2.074,10.859,5.498,14.852L69.002,189.344z M176.394,189.344h-49.136l34.072-70.762h33.34L176.394,189.344z
				 M285.11,189.344l-18.276-70.762h33.34l34.072,70.762H285.11z M392.503,189.344l-37.915-78.743
				c3.425-3.993,5.498-9.179,5.498-14.852V95.33h17.345l53.744,94.014H392.503z"/>
		</g>
	</g>
</g>
<g>
</g>
<g>
</g>
<g>
</g>
<g>
</g>
<g>
</g>
<g>
</g>
<g>
</g>
<g>
</g>
<g>
</g>
<g>
</g>
<g>
</g>
<g>
</g>
<g>
</g>
<g>
</g>
<g>
</g>
</svg>
