<?xml version="1.0" encoding="iso-8859-1"?>
<!-- Generator: Adobe Illustrator 19.0.0, SVG Export Plug-In . SVG Version: 6.00 Build 0)  -->
<svg version="1.1" id="Layer_1" xmlns="http://www.w3.org/2000/svg" xmlns:xlink="http://www.w3.org/1999/xlink" x="0px" y="0px"
	 viewBox="0 0 295.239 295.239" style="enable-background:new 0 0 295.239 295.239;" xml:space="preserve">
<g>
	<g>
		<path style="fill:#F9BA48;" d="M236.248,93.786l-2.038-3.31h-4.062c-0.924,7.652-7.314,14.286-16.057,14.286h-2.348
			c-9.233,0-17.376-5.752-20.633-14.286h-3.771c-2.505,8.09-10.01,14.286-19.343,14.286c-9.09,0-16.686-6.033-19.238-14.286h-1.981
			c-2.552,8.252-10.148,14.286-19.238,14.286c-9.333,0-16.838-6.195-19.343-14.286h-3.771c-3.252,8.533-11.4,14.286-20.633,14.286
			h-2.348c-8.743,0-15.133-6.633-16.057-14.286h-4.071l-2.038,3.31c-0.595,0.967-1.271,1.867-1.99,2.724v146.348H238.24
			L237.805,95.99C237.253,95.286,236.724,94.562,236.248,93.786z"/>
		<rect x="142.553" y="19.048" style="fill:#333333;" width="38.095" height="9.524"/>
		<rect x="114.429" y="19.048" style="fill:#333333;" width="9.524" height="9.524"/>
		<path style="fill:#333333;" d="M164.429,264.286c0-9.19-7.476-16.667-16.667-16.667s-16.667,7.476-16.667,16.667
			c0,9.19,7.476,16.667,16.667,16.667S164.429,273.476,164.429,264.286z M140.619,264.286c0-3.938,3.205-7.143,7.143-7.143
			s7.143,3.205,7.143,7.143c0,3.938-3.205,7.143-7.143,7.143S140.619,268.224,140.619,264.286z"/>
		<path style="fill:#333333;" d="M270.338,76.01L237.79,40.996V23.81C237.79,10.681,227.557,0,214.428,0H81.096
			C67.967,0,56.839,10.681,56.839,23.81v17.186L24.743,76.01c-5.462,5.919-6.738,14.176-3.505,21.552
			c3.229,7.381,10.29,11.962,18.343,11.962c9.09,0,17.752-4.562,22.905-11.99c0.205,0.429,0.438,0.857,0.676,1.281
			c3.748,6.71,10.59,10.714,18.271,10.714h2.348c9.229,0,17.524-4.6,22.41-11.976c0.386,0.624,0.795,1.233,1.238,1.833
			c4.762,6.448,12.09,10.143,20.105,10.143c8.338,0,15.686-4.143,20.229-10.438c4.543,6.29,11.895,10.433,20.229,10.433
			c8.014,0,15.343-3.695,20.105-10.143c0.443-0.595,0.852-1.21,1.238-1.833c4.881,7.376,13.176,11.976,22.405,11.976h2.348
			c7.686,0,14.51-4.005,18.262-10.714c0.233-0.419,0.457-0.848,0.657-1.276c5.162,7.429,13.79,11.99,22.881,11.99
			c8.052,0,14.952-4.581,18.181-11.962S275.8,81.929,270.338,76.01z M81.096,9.524h133.333c7.881,0,13.838,6.41,13.838,14.286
			v14.286H66.362V23.81C66.362,15.933,73.219,9.524,81.096,9.524z M55.224,91.29c-3.31,5.371-9.281,8.71-15.586,8.71
			c-4.276,0-7.852-2.338-9.567-6.257c-1.714-3.914-1.01-8.133,1.89-11.271L64.132,47.62H82.1L55.224,91.29z M103.648,77.181
			c-0.019,0.062-0.038,0.129-0.062,0.195l-3.181,10.352C98.143,95.067,91.467,100,83.786,100h-2.348
			c-4.186,0-7.905-2.181-9.943-5.833c-2.043-3.657-1.952-7.967,0.243-11.533L93.281,47.62h19.467L103.648,77.181z M127.31,100
			c-4.962,0-9.381-2.286-12.329-6.276c-2.914-3.948-3.729-8.886-2.333-13.581l10.062-32.524h19.843v36.914
			C142.553,93.062,135.838,100,127.31,100z M180.434,93.724c-2.948,3.99-7.705,6.276-12.667,6.276
			c-8.529,0-15.69-6.938-15.69-15.467V47.619h20.743l9.957,32.362C184.234,84.724,183.381,89.733,180.434,93.724z M224.034,94.162
			c-2.038,3.657-5.757,5.838-9.948,5.838h-2.348c-7.681,0-14.357-4.933-16.619-12.271l-12.338-40.11h19.467l21.6,35.1
			C225.986,86.267,226.062,90.538,224.034,94.162z M265.457,93.743c-1.719,3.919-5.295,6.257-9.571,6.257
			c-6.31,0-12.281-3.338-15.586-8.71l-8.329-13.533c-0.024-0.038-0.048-0.081-0.071-0.114l-18.471-30.024h17.967l32.171,34.852
			C266.462,85.614,267.172,89.829,265.457,93.743z"/>
		<path style="fill:#333333;" d="M228.267,271.429c0,7.876-5.957,14.286-13.838,14.286H81.096c-7.876,0-14.733-6.41-14.733-14.286
			v-28.571h-9.524v28.571c0,13.129,11.129,23.81,24.257,23.81h133.333c13.129,0,23.362-10.681,23.362-23.81v-28.571h-9.524
			L228.267,271.429L228.267,271.429z"/>
	</g>
</g>
<g>
</g>
<g>
</g>
<g>
</g>
<g>
</g>
<g>
</g>
<g>
</g>
<g>
</g>
<g>
</g>
<g>
</g>
<g>
</g>
<g>
</g>
<g>
</g>
<g>
</g>
<g>
</g>
<g>
</g>
</svg>
