<?xml version="1.0" encoding="iso-8859-1"?>
<!-- Generator: Adobe Illustrator 18.0.0, SVG Export Plug-In . SVG Version: 6.00 Build 0)  -->
<!DOCTYPE svg PUBLIC "-//W3C//DTD SVG 1.1//EN" "http://www.w3.org/Graphics/SVG/1.1/DTD/svg11.dtd">
<svg version="1.1" id="Capa_1" xmlns="http://www.w3.org/2000/svg" xmlns:xlink="http://www.w3.org/1999/xlink" x="0px" y="0px"
	 viewBox="0 0 297.001 297.001" style="enable-background:new 0 0 297.001 297.001;" xml:space="preserve">
<g>
	<path d="M243.405,34.511h-24.053V10.459c0-3.172-1.44-6.173-3.915-8.158c-2.474-1.984-5.714-2.74-8.811-2.051L51.503,34.721
		c-0.015,0.004-0.028,0.007-0.042,0.01l-0.133,0.029c-0.018,0.004-0.032,0.014-0.05,0.018c-4.658,1.056-8.14,5.214-8.14,10.191
		v241.573c0,5.775,4.683,10.458,10.457,10.458h189.809c5.774,0,10.457-4.683,10.457-10.458V44.969
		C253.862,39.194,249.179,34.511,243.405,34.511z M198.436,34.511h-49.573l49.573-11.017V34.511z M232.947,276.085H64.054V55.426
		h168.893V276.085z"/>
	<path d="M138.042,168.449v36.064h-8.085c-5.775,0-10.458,4.683-10.458,10.458s4.683,10.458,10.458,10.458h37.086
		c5.775,0,10.458-4.683,10.458-10.458s-4.683-10.458-10.458-10.458h-8.085v-36.064l38.935-37.413
		c3.077-2.957,4.049-7.487,2.455-11.446c-1.595-3.959-5.434-6.552-9.701-6.552h-84.293c-4.268,0-8.106,2.593-9.701,6.552
		c-1.594,3.959-0.622,8.489,2.455,11.446L138.042,168.449z M164.67,133.953l-16.17,15.538l-16.17-15.538H164.67z"/>
</g>
<g>
</g>
<g>
</g>
<g>
</g>
<g>
</g>
<g>
</g>
<g>
</g>
<g>
</g>
<g>
</g>
<g>
</g>
<g>
</g>
<g>
</g>
<g>
</g>
<g>
</g>
<g>
</g>
<g>
</g>
</svg>
